HIERARCHY
ROOT Hips
{
	OFFSET 0.000000 0.000000 0.000000
	CHANNELS 6 Xposition Yposition Zposition Zrotation Yrotation Xrotation 
	JOINT LHipJoint
	{
		OFFSET 0.000000 0.000000 0.000000
		CHANNELS 3 Zrotation Yrotation Xrotation
		JOINT LeftUpLeg
		{
			OFFSET 1.363060 -1.794630 0.839290
			CHANNELS 3 Zrotation Yrotation Xrotation
			JOINT LeftLeg
			{
				OFFSET 2.448110 -6.726130 0.000000
				CHANNELS 3 Zrotation Yrotation Xrotation
				JOINT LeftFoot
				{
					OFFSET 2.562200 -7.039590 0.000000
					CHANNELS 3 Zrotation Yrotation Xrotation
					JOINT LeftToeBase
					{
						OFFSET 0.157640 -0.433110 2.322550
						CHANNELS 3 Zrotation Yrotation Xrotation
						End Site
						{
							OFFSET 0.000000 0.000000 0.000000
						}
					}
				}
			}
		}
	}
	JOINT RHipJoint
	{
		OFFSET 0.000000 0.000000 0.000000
		CHANNELS 3 Zrotation Yrotation Xrotation
		JOINT RightUpLeg
		{
			OFFSET -1.305520 -1.794630 0.839290
			CHANNELS 3 Zrotation Yrotation Xrotation
			JOINT RightLeg
			{
				OFFSET -2.542530 -6.985550 0.000000
				CHANNELS 3 Zrotation Yrotation Xrotation
				JOINT RightFoot
				{
					OFFSET -2.568260 -7.056230 0.000000
					CHANNELS 3 Zrotation Yrotation Xrotation
					JOINT RightToeBase
					{
						OFFSET -0.164730 -0.452590 2.363150
						CHANNELS 3 Zrotation Yrotation Xrotation
						End Site
						{
							OFFSET 0.000000 0.000000 0.000000
						}
					}
				}
			}
		}
	}
	JOINT LowerBack
	{
		OFFSET 0.000000 0.000000 0.000000
		CHANNELS 3 Zrotation Yrotation Xrotation
		JOINT Spine
		{
			OFFSET 0.028270 2.035590 -0.193380
			CHANNELS 3 Zrotation Yrotation Xrotation
			JOINT Spine1
			{
				OFFSET 0.056720 2.048850 -0.042750
				CHANNELS 3 Zrotation Yrotation Xrotation
				JOINT Neck
				{
					OFFSET 0.000000 0.000000 0.000000
					CHANNELS 3 Zrotation Yrotation Xrotation
					JOINT Neck1
					{
						OFFSET -0.054170 1.746240 0.172020
						CHANNELS 3 Zrotation Yrotation Xrotation
						JOINT Head
						{
							OFFSET 0.104070 1.761360 -0.123970
							CHANNELS 3 Zrotation Yrotation Xrotation
							End Site
							{
								OFFSET 0.000000 0.000000 0.000000
							}
						}
					}
				}
				JOINT LeftShoulder
				{
					OFFSET 0.000000 0.000000 0.000000
					CHANNELS 3 Zrotation Yrotation Xrotation
					JOINT LeftArm
					{
						OFFSET 3.362410 1.200890 -0.311210
						CHANNELS 3 Zrotation Yrotation Xrotation
						JOINT LeftForeArm
						{
							OFFSET 4.983000 -0.000000 -0.000000
							CHANNELS 3 Zrotation Yrotation Xrotation
							JOINT LeftHand
							{
								OFFSET 3.483560 -0.000000 -0.000000
								CHANNELS 3 Zrotation Yrotation Xrotation
								JOINT LeftFingerBase
								{
									OFFSET 0.000000 0.000000 0.000000
									CHANNELS 3 Zrotation Yrotation Xrotation
									JOINT LeftHandIndex1
									{
										OFFSET 0.715260 -0.000000 -0.000000
										CHANNELS 3 Zrotation Yrotation Xrotation
										End Site
										{
											OFFSET 0.000000 0.000000 0.000000
										}
									}
								}
								JOINT LThumb
								{
									OFFSET 0.000000 0.000000 0.000000
									CHANNELS 3 Zrotation Yrotation Xrotation
									End Site
									{
										OFFSET 0.000000 0.000000 0.000000
									}
								}
							}
						}
					}
				}
				JOINT RightShoulder
				{
					OFFSET 0.000000 0.000000 0.000000
					CHANNELS 3 Zrotation Yrotation Xrotation
					JOINT RightArm
					{
						OFFSET -3.136600 1.374050 -0.404650
						CHANNELS 3 Zrotation Yrotation Xrotation
						JOINT RightForeArm
						{
							OFFSET -5.241900 -0.000000 -0.000000
							CHANNELS 3 Zrotation Yrotation Xrotation
							JOINT RightHand
							{
								OFFSET -3.444170 -0.000000 -0.000000
								CHANNELS 3 Zrotation Yrotation Xrotation
								JOINT RightFingerBase
								{
									OFFSET 0.000000 0.000000 0.000000
									CHANNELS 3 Zrotation Yrotation Xrotation
									JOINT RightHandIndex1
									{
										OFFSET -0.622530 -0.000000 -0.000000
										CHANNELS 3 Zrotation Yrotation Xrotation
										End Site
										{
											OFFSET 0.000000 0.000000 0.000000
										}
									}
								}
								JOINT RThumb
								{
									OFFSET 0.000000 0.000000 0.000000
									CHANNELS 3 Zrotation Yrotation Xrotation
									End Site
									{
										OFFSET 0.000000 0.000000 0.000000
									}
								}
							}
						}
					}
				}
			}
		}
	}
}
MOTION
Frames: 7
Frame Time: 0.008333
3.528687 17.260248 -6.040003 -124.813884 -86.621857 119.087343 11.259587 3.081121 -1.603512 -29.828531 -0.805466 -9.973813 5.869488 11.720094 36.693756 0.263863 3.087464 -9.852447 1.233500 -7.043200 -19.843300 -10.890811 -2.223237 -2.188323 39.053521 3.508932 2.816584 -4.552476 -10.693264 32.908253 0.054677 4.223716 2.704576 -0.353800 -3.821700 10.575700 5.623758 -0.941285 3.985029 1.730299 -0.947493 0.568507 -3.770020 -0.500354 1.244271 0.026255 0.574315 -6.387386 5.133043 -0.051460 9.259406 -0.490100 0.272600 4.312100 -4.060011 -5.001080 1.150589 -80.239414 5.187581 22.439511 15.545495 -25.388480 -3.753507 -0.256120 0.622259 -20.082563 18.215410 12.537016 3.865300 -7.125000 0.000000 0.000000 -8.044800 42.274900 0.544800 5.825419 4.904495 0.725169 82.574355 -5.825752 16.183088 -10.752566 20.377002 -2.234050 -0.050096 -0.913296 8.069410 -19.278271 -10.286914 3.256500 7.125000 0.000000 0.000000 6.631500 -39.761300 0.860600 
3.630740 17.244388 -6.042564 -126.004585 -86.505821 120.170447 11.203379 3.011261 -1.754344 -29.710800 -0.200755 -9.173790 6.097301 12.036141 37.962167 0.287057 3.820571 -10.716552 1.229800 -7.033000 -19.813200 -10.879141 -2.235219 -2.073056 39.122007 3.836780 2.304984 -4.631272 -10.831855 33.341088 0.057925 4.339128 2.649907 -0.382300 -3.970800 10.994500 5.650069 -0.926334 3.958932 1.743373 -0.935452 0.562871 -3.730967 -0.494242 1.254873 0.066327 0.588691 -6.370551 5.122983 -0.036793 9.285683 -0.503900 0.282200 4.319400 -4.051237 -5.000332 1.144565 -80.346778 5.208116 22.249637 15.361737 -25.177425 -3.687202 -0.256529 0.626061 -19.956882 18.237022 12.580190 3.883000 -7.125000 0.000000 0.000000 -8.032900 42.317800 0.535400 5.827325 4.906189 0.726427 82.550927 -5.846236 15.954483 -10.689774 20.294148 -2.220627 -0.052906 -0.913767 8.237714 -19.350385 -10.357243 3.293600 7.125000 0.000000 0.000000 6.579500 -39.839700 0.841100 
3.732694 17.230696 -6.044534 -127.180250 -86.391231 121.242687 11.146929 2.938721 -1.909172 -29.584909 0.428309 -8.319501 6.314295 12.324481 39.148754 0.298965 4.384476 -11.322477 1.222300 -7.012200 -19.751600 -10.866538 -2.243564 -1.957163 39.192885 4.180613 1.811002 -4.702757 -10.956846 33.730340 0.060410 4.432812 2.594286 -0.404200 -4.081600 11.306300 5.672646 -0.916117 3.926795 1.755111 -0.930313 0.556835 -3.693799 -0.491125 1.267996 0.112358 0.605467 -6.349706 5.105952 -0.019028 9.308864 -0.521600 0.293000 4.324300 -4.042375 -4.999070 1.138316 -80.457519 5.224535 22.045241 15.169168 -24.954765 -3.618257 -0.256706 0.629808 -19.836261 18.255779 12.612599 3.896500 -7.125000 0.000000 0.000000 -8.021500 42.349300 0.528300 5.829148 4.907533 0.728132 82.525944 -5.855318 15.761442 -10.634620 20.221603 -2.209266 -0.054797 -0.914759 8.356555 -19.424591 -10.440993 3.335800 7.125000 0.000000 0.000000 6.527500 -39.931900 0.819500 
3.834253 17.219860 -6.045815 -128.294774 -86.271698 122.263001 11.090252 2.863988 -2.065671 -29.443553 1.072603 -7.417760 6.517556 12.584212 40.245556 0.300560 4.778539 -11.665188 1.220300 -7.006900 -19.735900 -10.853250 -2.247885 -1.842223 39.271862 4.534666 1.343470 -4.763161 -11.062622 34.056280 0.061435 4.494849 2.551160 -0.425700 -4.187200 11.603900 5.699818 -0.910704 3.885504 1.766188 -0.932227 0.548930 -3.657464 -0.491438 1.285938 0.108387 0.629384 -6.372588 5.137064 0.011098 9.372522 -0.508000 0.312200 4.357200 -4.035122 -4.995238 1.130232 -80.571601 5.242972 21.832539 14.974475 -24.727778 -3.548837 -0.257149 0.633200 -19.709364 18.258880 12.650317 3.908400 -7.125000 0.000000 0.000000 -8.024700 42.385100 0.521400 5.828988 4.911548 0.729847 82.498710 -5.853115 15.582676 -10.587724 20.159910 -2.199748 -0.055105 -0.915689 8.470553 -19.461123 -10.541914 3.377600 7.125000 0.000000 0.000000 6.509500 -40.039800 0.799800 
3.934927 17.212669 -6.046209 -129.449610 -86.165507 123.328178 11.033754 2.786599 -2.221723 -29.308924 1.723905 -6.464041 6.703288 12.815020 41.244825 0.293223 5.000612 -11.749623 1.224100 -7.017300 -19.766600 -10.838596 -2.248667 -1.732503 39.334001 4.878920 0.918008 -4.808827 -11.142166 34.297512 0.061348 4.523183 2.518226 -0.443200 -4.271400 11.841500 5.711959 -0.911789 3.828743 1.775775 -0.943778 0.541791 -3.617673 -0.496069 1.313829 0.107787 0.657929 -6.388223 5.157137 0.047517 9.428804 -0.499600 0.333700 4.384600 -4.027932 -4.990670 1.122134 -80.691919 5.257057 21.612288 14.774873 -24.494751 -3.478557 -0.257862 0.636736 -19.579610 18.262023 12.699393 3.923900 -7.125000 0.000000 0.000000 -8.029900 42.432400 0.512300 5.829224 4.914095 0.732353 82.460090 -5.836400 15.463800 -10.545767 20.105117 -2.190806 -0.054382 -0.916373 8.512677 -19.487421 -10.633349 3.414400 7.125000 0.000000 0.000000 6.499300 -40.137200 0.782900 
4.034418 17.209517 -6.045519 -130.463981 -86.057004 124.255565 10.976120 2.706830 -2.376209 -29.158292 2.378802 -5.460041 6.870697 13.017378 42.145228 0.278120 5.059002 -11.576480 1.237900 -7.055400 -19.879500 -10.822400 -2.245424 -1.629956 39.398360 5.197942 0.548723 -4.835974 -11.190761 34.437215 0.059571 4.511489 2.498939 -0.459200 -4.347000 12.055100 5.733878 -0.919070 3.759885 1.785910 -0.965179 0.534472 -3.582503 -0.504987 1.348120 0.108462 0.689593 -6.395708 5.168301 0.088728 9.482381 -0.494700 0.357100 4.408600 -4.020834 -4.985576 1.114067 -80.816158 5.277763 21.401375 14.577942 -24.264179 -3.409880 -0.258701 0.640206 -19.455659 18.263879 12.753651 3.940900 -7.125000 0.000000 0.000000 -8.037100 42.485000 0.502300 5.829896 4.915954 0.735248 82.417432 -5.818626 15.373149 -10.519733 20.070467 -2.185017 -0.052459 -0.916279 8.536254 -19.471461 -10.707989 3.438100 7.125000 0.000000 0.000000 6.522800 -40.214800 0.773300 
4.132530 17.210010 -6.044239 -131.236780 -85.929456 124.942020 10.915816 2.624522 -2.528685 -28.966594 3.037444 -4.413621 7.019477 13.192539 42.948927 0.256275 4.974366 -11.148012 1.263600 -7.125500 -20.087700 -10.805477 -2.237519 -1.534257 39.491338 5.497423 0.246202 -4.842287 -11.206364 34.467720 0.055756 4.447838 2.487332 -0.472800 -4.409900 12.232700 5.780565 -0.930301 3.683498 1.799526 -0.993072 0.525462 -3.550978 -0.516898 1.383989 0.097732 0.724788 -6.404195 5.184132 0.135198 9.546872 -0.484800 0.383300 4.437400 -4.013636 -4.979900 1.105484 -80.945365 5.304154 21.191378 14.380693 -24.032298 -3.341617 -0.259820 0.643451 -19.310621 18.250929 12.821452 3.958900 -7.125000 0.000000 0.000000 -8.059900 42.550400 0.490600 5.830981 4.918350 0.738256 82.371160 -5.807230 15.321371 -10.509870 20.056345 -2.182667 -0.050510 -0.915535 8.517598 -19.446856 -10.741492 3.445700 7.125000 0.000000 0.000000 6.548300 -40.249100 0.770800 
